<svg width="20" height="21" viewBox="0 0 20 21" fill="none" xmlns="http://www.w3.org/2000/svg">
<path fill-rule="evenodd" clip-rule="evenodd" d="M18.97 4.70156L10.72 0.1875C10.2719 -0.0600809 9.72808 -0.0600809 9.28 0.1875L1.03 4.70344C0.550138 4.96599 0.251242 5.46894 0.25 6.01594V14.9822C0.251242 15.5292 0.550138 16.0321 1.03 16.2947L9.28 20.8106C9.72808 21.0582 10.2719 21.0582 10.72 20.8106L18.97 16.2947C19.4499 16.0321 19.7488 15.5292 19.75 14.9822V6.01687C19.7498 5.46887 19.4507 4.9646 18.97 4.70156ZM10 1.5L17.5328 5.625L14.7409 7.15219L7.20813 3.02719L10 1.5ZM10 9.75L2.46719 5.625L5.64625 3.88406L13.1791 8.00906L10 9.75ZM18.25 14.9859L10.75 19.0912V11.0466L13.75 9.405V12.75C13.75 13.1642 14.0858 13.5 14.5 13.5C14.9142 13.5 15.25 13.1642 15.25 12.75V8.58375L18.25 6.94219V14.9822V14.9859Z" fill="#121417"/>
</svg>
